<svg xmlns="http://www.w3.org/2000/svg" aria-hidden="true" style="position:absolute;width:0;height:0;overflow:hidden"><style>.default-palette,.palette0{color:currentColor;--color0:#f4f4fd;--color1:#4d5ae5;--color2:#2e2f42}</style><defs><symbol id="big-faceboock" fill="none" viewBox="0 0 40 40"><path fill="var(--color1, #4d5ae5)" d="M40 20c0 5.523-2.239 10.523-5.858 14.142S25.522 40 20 40 9.477 37.761 5.858 34.142C2.238 30.522 0 25.522 0 20S2.239 9.477 5.858 5.858C9.478 2.238 14.478 0 20 0s10.523 2.239 14.142 5.858A19.937 19.937 0 0 1 40 20z"/><path fill="var(--color0, #f4f4fd)" d="M23.997 11.985h2.191V8.169C25.81 8.117 24.51 8 22.996 8c-3.159 0-5.323 1.987-5.323 5.639V17h-3.486v4.266h3.486V32h4.274V21.267h3.345l.531-4.266h-3.877v-2.939c.001-1.233.333-2.077 2.051-2.077z"/></symbol><symbol id="big-twitter" fill="none" viewBox="0 0 40 40"><path fill="var(--color1, #4d5ae5)" d="M40 20c0 5.523-2.239 10.523-5.858 14.142S25.522 40 20 40 9.477 37.761 5.858 34.142C2.238 30.522 0 25.522 0 20S2.239 9.477 5.858 5.858C9.478 2.238 14.478 0 20 0s10.523 2.239 14.142 5.858A19.937 19.937 0 0 1 40 20z"/><path fill="var(--color0, #f4f4fd)" d="M32 12.559c-.892.391-1.843.65-2.835.777a4.893 4.893 0 0 0 2.164-2.72 9.833 9.833 0 0 1-3.12 1.191 4.919 4.919 0 0 0-8.511 3.364c0 .39.033.766.114 1.123-4.09-.2-7.71-2.16-10.141-5.147a4.954 4.954 0 0 0-.674 2.487c0 1.704.878 3.215 2.186 4.089a4.859 4.859 0 0 1-2.223-.606v.054a4.943 4.943 0 0 0 3.942 4.835c-.4.109-.837.161-1.29.161a4.35 4.35 0 0 1-.932-.084c.638 1.949 2.447 3.381 4.598 3.428a9.886 9.886 0 0 1-6.1 2.098c-.404 0-.791-.018-1.178-.067a13.852 13.852 0 0 0 7.548 2.208c9.054 0 14.004-7.5 14.004-14.001 0-.217-.007-.427-.018-.636A9.816 9.816 0 0 0 32 12.559z"/></symbol><symbol id="big-linkedin" fill="none" viewBox="0 0 40 40"><path fill="var(--color1, #4d5ae5)" d="M40 20c0 5.523-2.239 10.523-5.858 14.142S25.522 40 20 40 9.477 37.761 5.858 34.142C2.238 30.522 0 25.522 0 20S2.239 9.477 5.858 5.858C9.478 2.238 14.478 0 20 0s10.523 2.239 14.142 5.858A19.937 19.937 0 0 1 40 20z"/><g fill="var(--color0, #f4f4fd)" clip-path="url(#clip0_431671_2301)"><path d="M31.994 32v-.001H32v-8.802c0-4.306-.927-7.623-5.96-7.623-2.421 0-4.045 1.328-4.708 2.587h-.07v-2.185h-4.773v16.023h4.97v-7.934c0-2.089.396-4.109 2.983-4.109 2.55 0 2.587 2.384 2.587 4.243V32zM8.396 15.977h4.976V32H8.396zM10.882 8A2.883 2.883 0 0 0 8 10.882c0 1.591 1.291 2.909 2.882 2.909 1.591 0 2.882-1.318 2.882-2.909A2.884 2.884 0 0 0 10.882 8z"/></g><defs><clipPath id="clip0_431671_2301"><path fill="#fff" d="M8 8h24v24H8z"/></clipPath></defs></symbol><symbol id="big-instagram" fill="none" viewBox="0 0 40 40"><path fill="var(--color1, #4d5ae5)" d="M40 20c0 5.523-2.239 10.523-5.858 14.142S25.522 40 20 40 9.477 37.761 5.858 34.142C2.238 30.522 0 25.522 0 20S2.239 9.477 5.858 5.858C9.478 2.238 14.478 0 20 0s10.523 2.239 14.142 5.858A19.937 19.937 0 0 1 40 20z"/><g fill="var(--color0, #f4f4fd)" clip-path="url(#clip0_431671_2298)"><path d="M31.977 15.056c-.057-1.275-.263-2.152-.558-2.911a5.857 5.857 0 0 0-1.388-2.129 5.906 5.906 0 0 0-2.124-1.383c-.764-.295-1.636-.502-2.911-.558C23.71 8.015 23.303 8 20.045 8c-3.259 0-3.667.014-4.947.07-1.275.057-2.152.263-2.911.558a5.856 5.856 0 0 0-2.129 1.388 5.91 5.91 0 0 0-1.383 2.124c-.295.764-.502 1.636-.558 2.911-.06 1.285-.075 1.693-.075 4.951 0 3.259.014 3.667.07 4.947.057 1.275.263 2.152.558 2.911a5.92 5.92 0 0 0 1.388 2.129c.6.61 1.327 1.083 2.124 1.383.764.295 1.636.501 2.912.558 1.28.056 1.687.07 4.946.07 3.258 0 3.666-.014 4.946-.07 1.275-.057 2.152-.263 2.912-.558a6.139 6.139 0 0 0 3.511-3.512c.296-.764.502-1.636.558-2.911.056-1.28.07-1.688.07-4.947 0-3.258-.004-3.666-.06-4.946zm-2.162 9.799c-.051 1.172-.248 1.805-.412 2.227a3.981 3.981 0 0 1-2.279 2.279c-.422.164-1.06.36-2.227.412-1.266.056-1.645.07-4.848.07-3.202 0-3.586-.014-4.848-.07-1.172-.051-1.805-.248-2.227-.412a3.693 3.693 0 0 1-1.378-.896 3.73 3.73 0 0 1-.895-1.378c-.165-.422-.362-1.06-.413-2.227-.056-1.266-.07-1.646-.07-4.848s.014-3.587.07-4.848c.051-1.172.248-1.805.412-2.227.193-.52.498-.994.9-1.379a3.725 3.725 0 0 1 1.38-.895c.421-.164 1.059-.36 2.226-.413 1.266-.056 1.646-.07 4.848-.07 3.207 0 3.587.014 4.848.07 1.172.052 1.805.249 2.227.413.52.192.994.497 1.378.895.399.39.703.859.896 1.379.164.422.36 1.06.412 2.227.056 1.266.07 1.646.07 4.848s-.014 3.577-.07 4.843z"/><path d="M20.044 13.837a6.167 6.167 0 0 0-6.165 6.165 6.167 6.167 0 0 0 6.166 6.165 6.167 6.167 0 0 0 6.165-6.165 6.167 6.167 0 0 0-6.165-6.165zm0 10.164a4 4 0 1 1 .002-8 4 4 0 0 1-.002 8zM27.893 13.593a1.44 1.44 0 1 1-2.879 0 1.44 1.44 0 0 1 2.879 0z"/></g><defs><clipPath id="clip0_431671_2298"><path fill="#fff" d="M8 8h24v24H8z"/></clipPath></defs></symbol><symbol id="instagram-icon" fill="none" viewBox="0 0 40 40"><path fill="var(--color1, #4d5ae5)" d="M40 20c0 5.523-2.239 10.523-5.858 14.142S25.522 40 20 40 9.477 37.761 5.858 34.142C2.238 30.522 0 25.522 0 20S2.239 9.477 5.858 5.858C9.478 2.238 14.478 0 20 0s10.523 2.239 14.142 5.858A19.937 19.937 0 0 1 40 20z"/><g fill="var(--color0, #f4f4fd)" clip-path="url(#clip0_1045787_351)"><path d="M27.984 16.704c-.037-.85-.175-1.435-.372-1.941a3.905 3.905 0 0 0-.925-1.419 3.937 3.937 0 0 0-1.416-.922c-.51-.197-1.09-.335-1.94-.372-.857-.04-1.13-.05-3.301-.05s-2.445.01-3.298.047c-.85.037-1.435.175-1.94.372a3.903 3.903 0 0 0-1.42.925 3.94 3.94 0 0 0-.922 1.416c-.197.51-.334 1.09-.372 1.94-.04.857-.05 1.13-.05 3.302s.01 2.444.047 3.297c.037.85.175 1.435.372 1.941.203.538.519 1.019.925 1.42.4.405.885.721 1.416.921.51.197 1.09.335 1.941.372.853.038 1.125.047 3.298.047s2.444-.01 3.297-.047c.85-.037 1.435-.175 1.941-.372a4.093 4.093 0 0 0 2.341-2.34c.197-.51.335-1.092.372-1.942.038-.853.047-1.125.047-3.297s-.003-2.445-.04-3.298zm-1.44 6.533c-.035.781-.166 1.203-.276 1.484a2.654 2.654 0 0 1-1.519 1.52c-.281.109-.706.24-1.484.274-.844.038-1.097.047-3.232.047s-2.391-.01-3.232-.047c-.781-.034-1.203-.165-1.485-.275a2.462 2.462 0 0 1-.919-.597 2.487 2.487 0 0 1-.597-.919c-.11-.28-.24-.706-.275-1.484-.037-.844-.047-1.097-.047-3.232s.01-2.391.047-3.232c.035-.781.166-1.203.275-1.485.129-.347.332-.662.6-.919.26-.265.572-.469.92-.597.28-.109.706-.24 1.484-.275.844-.037 1.097-.047 3.232-.047 2.138 0 2.39.01 3.232.047.781.035 1.203.166 1.485.275.346.128.662.332.918.597.266.26.47.572.597.92.11.28.241.706.276 1.484.037.844.046 1.097.046 3.232s-.009 2.385-.046 3.229z"/><path d="M20.03 15.891a4.111 4.111 0 0 0 0 8.22 4.111 4.111 0 0 0 0-8.22zm0 6.777a2.667 2.667 0 1 1 0-5.334 2.667 2.667 0 0 1 0 5.334zM25.262 15.729a.96.96 0 1 1-1.92 0 .96.96 0 0 1 1.92 0z"/></g><defs><clipPath id="clip0_1045787_351"><path fill="#fff" d="M12 12h16v16H12z"/></clipPath></defs></symbol><symbol id="twitter-icon" fill="none" viewBox="0 0 40 40"><path fill="var(--color1, #4d5ae5)" d="M40 20c0 5.523-2.239 10.523-5.858 14.142S25.522 40 20 40 9.477 37.761 5.858 34.142C2.238 30.522 0 25.522 0 20S2.239 9.477 5.858 5.858C9.478 2.238 14.478 0 20 0s10.523 2.239 14.142 5.858A19.937 19.937 0 0 1 40 20z"/><path fill="var(--color0, #f4f4fd)" d="M28 15.039a6.839 6.839 0 0 1-1.89.518 3.262 3.262 0 0 0 1.443-1.813 6.555 6.555 0 0 1-2.08.794 3.28 3.28 0 0 0-5.674 2.243c0 .26.022.51.076.748a9.284 9.284 0 0 1-6.761-3.431 3.285 3.285 0 0 0 1.008 4.384 3.24 3.24 0 0 1-1.482-.404v.036a3.295 3.295 0 0 0 2.628 3.223 3.274 3.274 0 0 1-.86.108 2.9 2.9 0 0 1-.621-.056 3.311 3.311 0 0 0 3.065 2.285 6.59 6.59 0 0 1-4.067 1.399c-.269 0-.527-.012-.785-.045a9.234 9.234 0 0 0 5.032 1.472c6.036 0 9.336-5 9.336-9.334 0-.145-.005-.285-.012-.424A6.544 6.544 0 0 0 28 15.039z"/></symbol><symbol id="faceboock-icon" fill="none" viewBox="0 0 40 40"><path fill="var(--color1, #4d5ae5)" d="M40 20c0 5.523-2.239 10.523-5.858 14.142S25.522 40 20 40 9.477 37.761 5.858 34.142C2.238 30.522 0 25.522 0 20S2.239 9.477 5.858 5.858C9.478 2.238 14.478 0 20 0s10.523 2.239 14.142 5.858A19.937 19.937 0 0 1 40 20z"/><path fill="var(--color0, #f4f4fd)" d="M22.665 14.657h1.46v-2.544A18.85 18.85 0 0 0 21.997 12c-2.106 0-3.548 1.325-3.548 3.76V18h-2.324v2.844h2.324V28h2.849v-7.155h2.23L23.882 18h-2.585v-1.96c.001-.822.222-1.384 1.368-1.384z"/></symbol><symbol id="linkedin-icon" fill="none" viewBox="0 0 40 40"><path fill="var(--color1, #4d5ae5)" d="M40 20c0 5.523-2.239 10.523-5.858 14.142S25.522 40 20 40 9.477 37.761 5.858 34.142C2.238 30.522 0 25.522 0 20S2.239 9.477 5.858 5.858C9.478 2.238 14.478 0 20 0s10.523 2.239 14.142 5.858A19.937 19.937 0 0 1 40 20z"/><g fill="var(--color0, #f4f4fd)" clip-path="url(#clip0_1045787_367)"><path d="M27.996 28H28V22.13c0-2.87-.618-5.082-3.974-5.082-1.613 0-2.696.886-3.138 1.725h-.047v-1.457H17.66V28h3.314V22.71c0-1.393.264-2.74 1.988-2.74 1.7 0 1.725 1.59 1.725 2.83V28zM12.264 17.318h3.317V28h-3.317zM13.921 12c-1.06 0-1.92.86-1.92 1.921s.86 1.94 1.92 1.94 1.922-.879 1.922-1.94c0-1.06-.862-1.921-1.922-1.921z"/></g><defs><clipPath id="clip0_1045787_367"><path fill="#fff" d="M12 12h16v16H12z"/></clipPath></defs></symbol><symbol id="antenna" fill="none" viewBox="0 0 64 64"><path fill="var(--color2, #2e2f42)" d="M61.546 44.195 44.66 27.185l1.874-9.23c.484.188.998.287 1.517.29h.013a4.318 4.318 0 1 0-4.017-2.87l-9.92 1.21L17.945.32a1.067 1.067 0 0 0-.753-.32c-.28.002-.548.113-.747.31L13.42 3.318a1.067 1.067 0 0 0 0 1.509l1.628 1.65a29.885 29.885 0 0 0 5.04 35.327c.084.081.183.147.291.195a6.192 6.192 0 0 0-.104 1.094v12.374h-12.8A5.34 5.34 0 0 0 2.142 60.8v2.133c0 .59.477 1.067 1.066 1.067h49.067c.589 0 1.067-.478 1.067-1.067V60.8a5.34 5.34 0 0 0-5.334-5.333h-12.8v-5.484c2.005.42 4.048.635 6.097.64a29.699 29.699 0 0 0 14.08-3.567l1.636 1.646c.199.202.47.318.754.32.28-.002.548-.113.746-.31l3.025-3.009a1.067 1.067 0 0 0 0-1.508zM46.56 12.466a2.133 2.133 0 1 1 1.504 3.646h-.007a2.133 2.133 0 0 1-1.493-3.646zm-2.511 7.01-1.197 5.89-2.351-2.364zm-1.212-1.804-3.84 3.817-2.97-2.987zM48.008 57.6a3.2 3.2 0 0 1 3.2 3.2v1.067H4.275V60.8a3.2 3.2 0 0 1 3.2-3.2zm-14.933-4.267v2.134H22.408v-2.134zM22.408 51.2v-8.107c0-2.587 2.393-4.693 5.333-4.693s5.334 2.106 5.334 4.693V51.2zm12.8-3.392v-4.715c0-3.764-3.35-6.826-7.467-6.826a7.6 7.6 0 0 0-6.562 3.572 27.739 27.739 0 0 1-4.557-31.774l37.204 37.417a27.642 27.642 0 0 1-18.618 2.326zm22.578-1.367-1.503-1.512L17.181 5.592l-1.509-1.513 1.51-1.504 15.87 15.96c.007 0 .011.013.019.019L59.3 44.937z"/><path fill="var(--color1, #4d5ae5)" d="M27.751 40.533h-.01a3.2 3.2 0 0 0-.01 6.4h.01a3.2 3.2 0 0 0 .01-6.4zm.747 3.957a1.067 1.067 0 0 1-1.818-.762 1.068 1.068 0 0 1 1.062-1.061 1.067 1.067 0 0 1 .746 1.823z"/></symbol><symbol id="clock" fill="var(--color1, #4d5ae5)" viewBox="0 0 64 64"><path fill="var(--color2, #2e2f42)" d="M62.593 30.602C62.59 13.698 48.883-.003 31.977 0 15.073.003 1.372 13.71 1.375 30.616a30.61 30.61 0 0 0 21.299 29.152c.12.038.247.058.373.057.242 0 .478-.065.685-.187.27-.16.472-.414.567-.713l7.73-24.5a3.826 3.826 0 1 0-1.68-7.27L20.137 16.942a1.275 1.275 0 0 0-1.803 1.804l10.207 10.218a3.752 3.752 0 0 0 1.072 4.618l-7.365 23.346C7.692 51.566.239 35.42 5.601 20.864 10.963 6.31 27.11-1.145 41.665 4.217 56.22 9.58 63.673 25.726 58.312 40.281a28.087 28.087 0 0 1-14.925 15.947l-.796-3.749a1.275 1.275 0 0 0-2.096-.687l-7.674 6.851a1.275 1.275 0 0 0 .462 2.169l9.797 3.127a1.275 1.275 0 0 0 1.638-1.48l-.782-3.678a30.51 30.51 0 0 0 18.657-28.178zm-30.609-1.275a1.276 1.276 0 1 1 0 2.552 1.276 1.276 0 0 1 0-2.552zm4.201 29.728 4.368-3.896 1.206 5.68z"/><path d="M30.709 6.37v2.55a1.275 1.275 0 1 0 2.55 0V6.37a1.276 1.276 0 0 0-2.55 0zM7.752 29.327a1.275 1.275 0 0 0 0 2.55h2.55a1.275 1.275 0 1 0 0-2.55zM56.216 31.878a1.275 1.275 0 1 0 0-2.55h-2.55a1.276 1.276 0 0 0 0 2.55z"/></symbol><symbol id="diagram" fill="none" viewBox="0 0 64 64"><g fill="var(--color1, #4d5ae5)" clip-path="url(#clip0_1004689_1305)"><path d="M29.851 29.93h2.132v9.594h-2.132zM38.38 34.194h2.132v5.33H38.38zM21.322 37.392h2.132v2.132h-2.132zM14.925 36.326h2.133v3.198h-2.132z"/><path fill="var(--color2, #2e2f42)" d="M3.198 56.582h51.174a3.198 3.198 0 0 0 3.198-3.198v-4.265a3.198 3.198 0 0 0-3.198-3.198h-1.067V19.334l6.056-5.736a3.216 3.216 0 1 0-1.493-1.526l-4.563 4.325v-2.46a3.198 3.198 0 0 0-3.198-3.198H7.463a3.198 3.198 0 0 0-3.199 3.199V45.92H3.198A3.198 3.198 0 0 0 0 49.119v4.265a3.198 3.198 0 0 0 3.198 3.198zm57.57-46.909a1.066 1.066 0 1 1 0 2.133 1.066 1.066 0 0 1 0-2.133zM6.397 13.938c0-.59.477-1.067 1.066-1.067h42.644c.589 0 1.066.478 1.066 1.067v4.477l-2.132 2.026V16.07c0-.589-.477-1.066-1.066-1.066H9.595c-.589 0-1.066.477-1.066 1.066v26.652c0 .59.477 1.067 1.066 1.067h38.38c.589 0 1.066-.478 1.066-1.067V23.374l2.132-2.02V45.92H6.397zm9.595 13.859a3.198 3.198 0 1 0 2.214 5.497l3.706 1.86c.43.215.953.114 1.273-.246l7.877-8.863 7.744 5.803c.416.311.996.278 1.372-.079l6.73-6.375v16.262H10.662v-24.52H46.91v5.32L39.366 29.6l-7.81-5.854a1.067 1.067 0 0 0-1.435.144l-7.986 8.985-2.986-1.493c.022-.128.036-.257.041-.387a3.199 3.199 0 0 0-3.198-3.198zm1.066 3.198a1.066 1.066 0 1 1-2.133 0 1.066 1.066 0 0 1 2.133 0zm6.396 17.058h10.661v1.066c0 .589-.477 1.066-1.066 1.066H24.52a1.066 1.066 0 0 1-1.066-1.066zM2.132 49.12c0-.589.478-1.066 1.066-1.066h18.124v1.066a3.198 3.198 0 0 0 3.198 3.198h8.53a3.198 3.198 0 0 0 3.198-3.198v-1.066h18.124c.588 0 1.066.477 1.066 1.066v4.265c0 .588-.478 1.066-1.067 1.066H3.198a1.066 1.066 0 0 1-1.066-1.066z"/></g><defs><clipPath id="clip0_1004689_1305"><path fill="#fff" d="M0 0h64v64H0z"/></clipPath></defs></symbol><symbol id="astronaut" fill="var(--color1, #4d5ae5)" viewBox="0 0 64 64"><path d="M63.948 9.048a1.068 1.068 0 0 0-.86-.725l-3.822-.556-1.71-3.462c-.358-.73-1.553-.73-1.912 0l-1.71 3.462-3.82.556a1.066 1.066 0 0 0-.592 1.819l2.765 2.695-.653 3.806c-.068.4.096.804.424 1.043.332.241.765.271 1.124.081L56.6 15.97l3.418 1.797a1.068 1.068 0 0 0 1.547-1.124l-.652-3.806 2.766-2.696a1.07 1.07 0 0 0 .27-1.093zm-4.926 2.654c-.25.244-.366.598-.306.944l.382 2.228-2.001-1.051a1.063 1.063 0 0 0-.994 0l-2.001 1.051.382-2.228a1.068 1.068 0 0 0-.307-.944l-1.62-1.579 2.238-.325c.348-.05.647-.269.803-.584l1-2.026L57.6 9.214c.156.315.456.534.804.584l2.237.325zM52.267 41.044h-2.134v2.134h2.134zM52.267 45.311h-2.134v2.134h2.134zM54.4 43.178h-2.133v2.133H54.4zM50.134 43.178H48v2.133h2.134zM44.8 52.778h-2.133v2.133H44.8zM44.8 57.045h-2.133v2.133H44.8zM46.934 54.911H44.8v2.134h2.134zM42.667 54.911h-2.134v2.134h2.134zM32 48.511h-2.133v2.134H32zM32 52.778h-2.133v2.133H32zM34.133 50.645H32v2.133h2.133zM29.867 50.645h-2.134v2.133h2.134zM11.733 12.244H9.6v2.133h2.133zM11.733 16.51H9.6v2.134h2.133zM13.866 14.377h-2.133v2.134h2.133zM9.6 14.377H7.466v2.134H9.6z"/><path fill="var(--color2, #2e2f42)" d="M49.43 28.319a3.548 3.548 0 0 0-2.377-1.41 3.553 3.553 0 0 0-2.68.705l-2.503 1.919h-.001l-3.796 2.835-2.715-1.082c4.842-2.172 8.227-7.016 8.227-12.64C43.585 11 37.34 4.78 29.663 4.78 21.986 4.78 15.74 11 15.74 18.646c0 2.771.83 5.348 2.24 7.517l-5.527-.048h-.01c-.017 0-.03.009-.047.01a1.04 1.04 0 0 0-.31.062c-.026.01-.052.015-.077.026-.012.006-.025.007-.038.013l-6.466 3.193h-.002l-3.787 1.822a.82.82 0 0 0-.126.07A3.56 3.56 0 0 0 .393 35.9a3.55 3.55 0 0 0 2.112 1.779 3.558 3.558 0 0 0 2.757-.257l2.776-1.476 4.528-2.339 2.714-.015-10.884 10.83c0 .002-.002.002-.003.003l-2.677 2.666a3.298 3.298 0 0 0-.98 2.356c0 .89.347 1.727.98 2.357.65.647 1.504.97 2.358.97.856 0 1.709-.323 2.36-.97l2.629-2.618 3.482-2.599 1.801 1.794-3.523 3.508-.003.003-2.678 2.666a3.298 3.298 0 0 0-.98 2.355c0 .89.348 1.727.98 2.358.65.646 1.505.97 2.36.97s1.71-.324 2.36-.97l2.679-2.667 4.285-4.266c0-.002 0-.003.002-.004l2.019-2-.007-.007c.012-.013.03-.017.043-.031L32.215 38.98l6.942.988a1.052 1.052 0 0 0 .525-.066c.035-.013.066-.03.1-.047.038-.019.078-.03.114-.054l6.427-4.267c.024-.016.036-.042.059-.059.025-.02.057-.028.08-.05l2.544-2.383a3.558 3.558 0 0 0 .424-4.723zM4.26 35.54c-.346.186-.74.223-1.116.104a1.43 1.43 0 0 1-.425-2.52l2.628-1.264.632 1.849.266.776zm6.995-3.655-3.097 1.6-.51-1.494-.367-1.073 4.053-2zm30.199-13.241c0 1.837-.439 3.57-1.198 5.119l-8.363-3.798a3.722 3.722 0 0 0-1.576-2.776l2.928-9.72C38 8.98 41.454 13.416 41.454 18.643zm-23.578 0c0-6.47 5.289-11.733 11.789-11.733.506 0 1 .042 1.49.104l-2.864 9.507c-.038 0-.075-.011-.114-.011a3.743 3.743 0 0 0-3.745 3.733 3.743 3.743 0 0 0 3.745 3.733c1.389 0 2.589-.766 3.236-1.889l7.725 3.51c-2.15 2.893-5.59 4.78-9.473 4.78-6.5 0-11.789-5.265-11.789-11.734zm11.913 1.6c0 .882-.724 1.6-1.612 1.6a1.608 1.608 0 0 1-1.612-1.6c0-.882.723-1.6 1.612-1.6.889 0 1.612.718 1.612 1.6zM4.929 50.292a1.217 1.217 0 0 1-1.708.002 1.188 1.188 0 0 1 0-1.689l1.924-1.917 1.703 1.695zm6.428 7.467a1.216 1.216 0 0 1-1.71.001 1.188 1.188 0 0 1 0-1.688l1.926-1.918.805.801.899.894zm6.964-6.937-.004.002-3.53 3.52-.805-.801-.898-.894 3.527-3.51v-.002s.002 0 .003-.002c.08-.08.13-.176.18-.27.013-.028.04-.052.051-.08.034-.083.039-.171.052-.258.006-.049.028-.095.028-.145 0-.071-.026-.14-.041-.211-.013-.064-.013-.13-.037-.191-.04-.1-.11-.189-.183-.275-.02-.024-.028-.054-.05-.076h-.001l-.002-.004-3.214-3.2c-.034-.034-.078-.048-.116-.077a1.026 1.026 0 0 0-.174-.115.99.99 0 0 0-.187-.065 1.022 1.022 0 0 0-.206-.04 1.035 1.035 0 0 0-.19.01 1.068 1.068 0 0 0-.209.04.99.99 0 0 0-.188.09c-.04.022-.085.03-.122.057l-3.547 2.648-1.801-1.794 4.798-4.772 8.72 8.577zm13.637-14.034c-.03-.004-.06.008-.09.006a1.044 1.044 0 0 0-.23.014c-.061.01-.119.022-.177.042a.981.981 0 0 0-.193.094c-.06.036-.114.075-.166.123-.026.022-.057.033-.08.058l-9.397 10.292-8.656-8.514 5.666-5.636a1.068 1.068 0 0 0-.759-1.822l-4.437.026.055-3.215 6.208.053a13.897 13.897 0 0 0 9.963 4.202c.875 0 1.728-.09 2.559-.245.08.064.159.129.26.17l4.819 1.92.305 1.516.356 1.77zm8.083.357-.626-3.116 2.892-2.16.758 1.004 1.136 1.509zm7.507-5.662-1.676 1.57-1.862-2.473 1.663-1.274c.31-.24.701-.336 1.085-.286.387.054.728.256.96.568.434.584.36 1.398-.17 1.895z"/><path fill="var(--color2, #2e2f42)" d="m27.204 37.088-4.286-4.267a1.066 1.066 0 0 0-1.505 0l-4.285 4.267a1.072 1.072 0 0 0 0 1.513l4.285 4.266a1.066 1.066 0 0 0 1.505 0l4.286-4.266a1.067 1.067 0 0 0 0-1.513zm-5.038 3.518-2.773-2.762 2.773-2.761 2.775 2.761zM34.328 10.142l-.515 2.071c.142.035 3.476.904 3.476 4.298h2.133c0-4.034-3.331-5.931-5.093-6.37zM39.422 18.644h-2.133v2.134h2.133z"/></symbol><symbol id="cursor-hand" fill="none" viewBox="0 0 14 16"><path fill="var(--color2, #2e2f42)" d="M12 6c-.246 0-.477.067-.675.184A1.335 1.335 0 0 0 10 5c-.325 0-.625.118-.857.314a1.333 1.333 0 0 0-1.81-.468V1.333C7.333.598 6.735 0 6 0S4.667.598 4.667 1.333v8.922c0 .167-.111.254-.159.283a.33.33 0 0 1-.324.015l-2.14-1.07A1.414 1.414 0 0 0 0 10.745V11c0 .092.038.18.106.244l3.847 3.59A4.32 4.32 0 0 0 6.91 16H9a4.338 4.338 0 0 0 4.333-4.333V7.333C13.333 6.598 12.735 6 12 6zm.667 5.667A3.67 3.67 0 0 1 9 15.333H6.91c-.932 0-1.82-.35-2.502-.986L.667 10.855v-.11a.746.746 0 0 1 1.078-.666l2.141 1.07c.312.157.676.14.973-.044a.994.994 0 0 0 .474-.85V1.333a.668.668 0 0 1 1.334 0v5a.333.333 0 1 0 .666 0V6a.668.668 0 0 1 1.334 0v.335a.334.334 0 0 0 .666-.002v-.005a.667.667 0 0 1 1.333.005v1a.333.333 0 1 0 .667 0 .668.668 0 0 1 1.334 0z"/></symbol></defs></svg>